<svg width="13" height="13" viewBox="0 0 13 13" fill="none" xmlns="http://www.w3.org/2000/svg">
<g clip-path="url(#clip0_1_5981)">
<path d="M10.2375 -0.000317165H2.7625C2.03722 -0.0068165 1.339 0.274712 0.821081 0.782477C0.303161 1.29024 0.00786242 1.98275 0 2.70802L0 4.33302C0 4.47667 0.0570683 4.61445 0.158651 4.71603C0.260233 4.81761 0.398008 4.87468 0.541667 4.87468C0.685326 4.87468 0.823101 4.81761 0.924683 4.71603C1.02627 4.61445 1.08333 4.47667 1.08333 4.33302V2.70802C1.09103 2.27002 1.27214 1.85296 1.58693 1.54833C1.90172 1.24369 2.32449 1.07635 2.7625 1.08302H10.2375C10.6755 1.07635 11.0983 1.24369 11.4131 1.54833C11.7279 1.85296 11.909 2.27002 11.9167 2.70802V10.2913C11.909 10.7293 11.7279 11.1464 11.4131 11.451C11.0983 11.7557 10.6755 11.923 10.2375 11.9163H2.7625C2.32449 11.923 1.90172 11.7557 1.58693 11.451C1.27214 11.1464 1.09103 10.7293 1.08333 10.2913V8.66635C1.08333 8.52269 1.02627 8.38491 0.924683 8.28333C0.823101 8.18175 0.685326 8.12468 0.541667 8.12468C0.398008 8.12468 0.260233 8.18175 0.158651 8.28333C0.0570683 8.38491 0 8.52269 0 8.66635L0 10.2913C0.00786242 11.0166 0.303161 11.7091 0.821081 12.2169C1.339 12.7247 2.03722 13.0062 2.7625 12.9997H10.2375C10.9628 13.0062 11.661 12.7247 12.1789 12.2169C12.6968 11.7091 12.9921 11.0166 13 10.2913V2.70802C12.9921 1.98275 12.6968 1.29024 12.1789 0.782477C11.661 0.274712 10.9628 -0.0068165 10.2375 -0.000317165V-0.000317165Z" fill="#FBFBFB"/>
<path d="M1.625 6.49998C1.625 6.64364 1.68207 6.78141 1.78365 6.88299C1.88523 6.98457 2.02301 7.04164 2.16667 7.04164L9.31017 7.02539L6.96854 9.36702C6.91681 9.41698 6.87554 9.47675 6.84715 9.54284C6.81876 9.60893 6.80382 9.68 6.8032 9.75193C6.80257 9.82385 6.81628 9.89517 6.84351 9.96174C6.87075 10.0283 6.91097 10.0888 6.96183 10.1396C7.01269 10.1905 7.07316 10.2307 7.13973 10.258C7.2063 10.2852 7.27763 10.2989 7.34955 10.2983C7.42147 10.2977 7.49255 10.2827 7.55864 10.2543C7.62472 10.2259 7.68449 10.1847 7.73446 10.1329L10.2185 7.64885C10.5232 7.34412 10.6943 6.93087 10.6943 6.49998C10.6943 6.06908 10.5232 5.65583 10.2185 5.3511L7.73554 2.86702C7.63338 2.76835 7.49656 2.71375 7.35453 2.71499C7.21251 2.71622 7.07665 2.77319 6.97622 2.87362C6.87579 2.97405 6.81883 3.1099 6.81759 3.25193C6.81636 3.39395 6.87096 3.53078 6.96962 3.63293L9.27821 5.94206L2.16667 5.95831C2.02301 5.95831 1.88523 6.01538 1.78365 6.11696C1.68207 6.21854 1.625 6.35632 1.625 6.49998V6.49998Z" fill="#FBFBFB"/>
</g>
<defs>
<clipPath id="clip0_1_5981">
<rect width="13" height="13" fill="white"/>
</clipPath>
</defs>
</svg>
