<svg width="20" height="15" viewBox="0 0 20 15" fill="none" xmlns="http://www.w3.org/2000/svg">
<path d="M18.6801 5.42857C17.4354 3.40128 14.6039 0 9.63439 0C4.66489 0 1.83342 3.40128 0.58864 5.42857C0.203831 6.05097 0 6.76825 0 7.5C0 8.23175 0.203831 8.94903 0.58864 9.57143C1.83342 11.5987 4.66489 15 9.63439 15C14.6039 15 17.4354 11.5987 18.6801 9.57143C19.0649 8.94903 19.2688 8.23175 19.2688 7.5C19.2688 6.76825 19.0649 6.05097 18.6801 5.42857V5.42857ZM17.3118 8.73114C16.2427 10.4695 13.823 13.3949 9.63439 13.3949C5.44578 13.3949 3.02604 10.4695 1.95702 8.73114C1.7284 8.36119 1.6073 7.93489 1.6073 7.5C1.6073 7.06511 1.7284 6.63881 1.95702 6.26886C3.02604 4.5305 5.44578 1.60514 9.63439 1.60514C13.823 1.60514 16.2427 4.52729 17.3118 6.26886C17.5404 6.63881 17.6615 7.06511 17.6615 7.5C17.6615 7.93489 17.5404 8.36119 17.3118 8.73114V8.73114Z" fill="#B7B7B7"/>
<path d="M9.63443 3.48715C8.84076 3.48715 8.06492 3.7225 7.40501 4.16344C6.7451 4.60437 6.23077 5.2311 5.92704 5.96435C5.62332 6.6976 5.54385 7.50445 5.69869 8.28286C5.85353 9.06128 6.23571 9.7763 6.79692 10.3375C7.35812 10.8987 8.07314 11.2809 8.85156 11.4357C9.62997 11.5906 10.4368 11.5111 11.1701 11.2074C11.9033 10.9037 12.53 10.3893 12.971 9.72941C13.4119 9.0695 13.6473 8.29366 13.6473 7.49999C13.646 6.43611 13.2228 5.41617 12.4705 4.66389C11.7182 3.91162 10.6983 3.48843 9.63443 3.48715V3.48715ZM9.63443 9.9077C9.15823 9.9077 8.69272 9.76649 8.29678 9.50193C7.90083 9.23736 7.59223 8.86133 7.41 8.42138C7.22776 7.98143 7.18008 7.49732 7.27298 7.03027C7.36589 6.56322 7.5952 6.13421 7.93192 5.79749C8.26864 5.46077 8.69766 5.23145 9.16471 5.13855C9.63175 5.04565 10.1159 5.09333 10.5558 5.27556C10.9958 5.4578 11.3718 5.7664 11.6364 6.16234C11.9009 6.55829 12.0421 7.02379 12.0421 7.49999C12.0421 8.13856 11.7885 8.75097 11.3369 9.2025C10.8854 9.65403 10.273 9.9077 9.63443 9.9077Z" fill="#B7B7B7"/>
</svg>
