<svg width="105" height="27" viewBox="0 0 105 27" fill="none" xmlns="http://www.w3.org/2000/svg">
<path d="M101.294 10.7231C103.401 10.7231 105 12.3415 105 14.548C105 16.6075 103.401 18.3728 101.294 18.3728C99.1871 18.3728 97.5166 16.6075 97.5166 14.548C97.5157 12.3415 99.1871 10.7231 101.294 10.7231Z" fill="#F21A05"/>
<path d="M50.1052 5.04359C48.7724 3.85644 46.9228 3.26196 44.5564 3.26196C42.8405 3.27098 40.8875 3.75901 38.702 4.72605L38.4882 3.56506L35.9971 3.7103V18.4369H38.9595V7.27535C39.7239 6.93707 40.6175 6.65471 41.643 6.42829C42.6694 6.20006 43.5354 6.0873 44.2428 6.0873C46.2163 6.0873 47.5268 6.40574 48.171 7.04351C48.8143 7.68219 49.1368 8.70155 49.1368 10.1007L49.1662 18.4351H52.101V10.1007C52.1019 7.91854 51.4354 6.23164 50.1052 5.04359Z" fill="#00113D"/>
<path d="M64.0796 15.8776L64.0404 15.4943L63.7544 15.5358L63.6528 15.5511C63.3953 15.5899 63.0149 15.6314 62.5079 15.6756C62.0028 15.7189 61.4958 15.7396 60.9898 15.7396C59.6542 15.7396 58.7143 15.5646 58.1699 15.2182C57.6255 14.8691 57.3538 14.17 57.3538 13.1173V6.26139H62.5133L62.5195 3.50732H57.3529V0L55.5354 0.216501L54.5633 3.50732H52.3449L52.1025 6.26139H54.4208V13.1173C54.4208 16.74 56.5493 18.5523 60.8053 18.5523C62.0945 18.5523 63.2688 18.4558 64.3264 18.2628L64.0796 15.8776Z" fill="#00113D"/>
<path d="M14.4611 5.45317C13.0062 4.05674 11.0283 3.35852 8.52736 3.35852C6.88534 3.36844 5.0197 3.85647 2.93042 4.82261L2.7157 3.66343L0.224609 3.80776V26.2733L2.29874 26.2806L3.18345 25.3658V20.9988H3.18791V17.4022C3.93096 17.7594 4.68114 18.0409 5.43755 18.2448C6.43809 18.5145 7.44842 18.648 8.47034 18.648C8.82049 18.648 9.15994 18.6345 9.4887 18.6065C11.5165 18.4378 13.1648 17.7486 14.4326 16.5398C15.9071 15.1335 16.6448 13.2851 16.6448 10.9893C16.6448 8.69437 15.916 6.8496 14.4611 5.45317ZM12.493 14.4975C11.7 15.3915 10.2692 15.8389 8.19771 15.8389C6.72854 15.8389 5.05801 15.4609 3.18791 14.7077V7.40348C4.84774 6.5907 6.51827 6.18566 8.19771 6.18566C8.92651 6.18566 9.5769 6.23889 10.1462 6.34804C11.2038 6.5474 11.9887 6.93259 12.5001 7.50452C13.2868 8.38315 13.6806 9.54594 13.6806 10.9902C13.6806 12.4344 13.2841 13.6035 12.493 14.4975Z" fill="#00113D"/>
<path d="M72.3564 18.6741C73.2795 18.6443 74.1179 18.5189 74.8743 18.297C73.9949 18.5207 73.1556 18.6443 72.3564 18.6741Z" fill="#00113D"/>
<path d="M79.463 3.5199V11.8552C79.463 14.0283 78.7983 15.7107 77.4664 16.8997C76.759 17.5302 75.9063 17.9939 74.9067 18.2889C74.896 18.2925 74.8844 18.2961 74.8737 18.2979C73.9961 18.5207 73.156 18.6452 72.3568 18.6741C72.2142 18.6795 72.0672 18.6813 71.9193 18.6813C71.7973 18.6813 71.6734 18.6795 71.5496 18.6741C70.7495 18.6443 69.9111 18.5207 69.0326 18.2979C69.0219 18.2979 69.0121 18.2943 68.9997 18.2889C67.9991 17.9939 67.1474 17.5302 66.44 16.8997C65.1071 15.7107 64.4434 14.0292 64.4434 11.8552V3.5199H67.4058V11.8552C67.4058 13.2561 67.7274 14.2746 68.3716 14.9124C68.9756 15.5104 70.1633 15.8271 71.9389 15.8659H71.9683C73.7413 15.8271 74.9289 15.5104 75.5357 14.9124C76.1798 14.2764 76.5015 13.2561 76.5015 11.8552V3.5199H79.463Z" fill="#00113D"/>
<path d="M31.9072 11.4357C31.2862 15.8524 25.095 16.4116 22.0684 14.1961H22.0675C20.062 12.4497 20.0495 9.22472 21.8306 7.25546C23.1839 5.95104 25.2179 5.75348 27.0096 5.85993L28.069 3.10495C24.7119 2.61332 20.8238 3.42249 18.7764 6.37683C16.9651 8.94146 17.0943 13.1975 19.3368 15.5691C23.7835 20.4205 34.4598 18.6867 34.948 11.4348H31.9072V11.4357Z" fill="#00113D"/>
<path d="M34.9815 10.4696H31.9585C31.9211 8.21802 30.2407 6.25869 27.9849 5.98265L29.0201 3.28992C32.3274 3.99806 35.0706 6.95059 34.9815 10.4696Z" fill="#F21A05"/>
<path d="M81.4472 4.79288C83.0367 3.80419 85.6311 3.09875 88.1971 3.09875C91.8509 3.09875 95.338 4.56735 95.3095 8.6908L95.2819 14.1132V14.2828C95.2819 15.5539 95.5055 16.1186 96.8161 16.1186H97.0112V18.6886C93.8314 18.6886 92.1297 17.9543 92.1297 15.2147C90.7906 17.4176 88.0011 18.7446 84.9335 18.8294C81.5862 18.9421 79.9683 16.9088 79.9683 14.7339C79.9683 12.1918 82.2001 9.42419 86.4392 9.53696L89.8703 9.59379C90.6516 9.62175 92.046 9.65062 92.1297 8.68989C92.1021 6.62862 90.1768 5.92229 88.0011 5.92229C85.9091 5.92229 83.5659 6.57179 82.3667 7.30609L81.4472 4.79288ZM89.7874 12.1079L86.5239 12.0511C84.4319 12.0231 83.2879 13.2941 83.2879 14.4236C83.2879 15.3834 84.1245 16.2593 85.9661 16.1745C88.2817 16.0329 92.0192 14.4236 92.1306 11.6839V11.5143C91.5444 11.9663 90.763 12.1079 89.7874 12.1079Z" fill="#00113D"/>
</svg>
