<svg width="14" height="14" viewBox="0 0 14 14" fill="none" xmlns="http://www.w3.org/2000/svg">
<g clip-path="url(#clip0_1_5986)">
<path d="M7.00008 8.75C6.84537 8.75 6.697 8.68854 6.5876 8.57914C6.47821 8.46975 6.41675 8.32137 6.41675 8.16666C6.43841 7.78549 6.55437 7.41566 6.75423 7.09037C6.95409 6.76508 7.2316 6.4945 7.56183 6.30291C7.77762 6.18465 7.95035 6.00099 8.05516 5.77836C8.15998 5.55573 8.19149 5.30559 8.14517 5.06391C8.10023 4.83308 7.98739 4.62093 7.82111 4.45464C7.65482 4.28835 7.44267 4.17551 7.21183 4.13058C7.04333 4.09948 6.87003 4.10588 6.70428 4.14932C6.53853 4.19277 6.38438 4.27219 6.25279 4.38195C6.1212 4.49171 6.01541 4.62911 5.94292 4.78438C5.87044 4.93965 5.83305 5.10898 5.83342 5.28033C5.83342 5.43504 5.77196 5.58341 5.66256 5.69281C5.55317 5.8022 5.40479 5.86366 5.25008 5.86366C5.09537 5.86366 4.947 5.8022 4.8376 5.69281C4.72821 5.58341 4.66675 5.43504 4.66675 5.28033C4.66669 4.93952 4.74129 4.60283 4.8853 4.29395C5.02932 3.98506 5.23925 3.71147 5.50033 3.49241C5.74986 3.28382 6.04023 3.12968 6.35282 3.03991C6.66542 2.95014 6.99333 2.9267 7.31551 2.97111C7.63769 3.01552 7.94704 3.1268 8.22369 3.29779C8.50034 3.46879 8.73818 3.69573 8.92197 3.96405C9.10575 4.23237 9.23141 4.53616 9.29089 4.8559C9.35036 5.17565 9.34233 5.50429 9.26732 5.82076C9.19231 6.13722 9.05197 6.4345 8.85531 6.69354C8.65864 6.95257 8.41 7.16763 8.12533 7.32491C7.97784 7.4158 7.85259 7.53859 7.75881 7.68426C7.66503 7.82994 7.60509 7.99478 7.58342 8.16666C7.58342 8.32137 7.52196 8.46975 7.41256 8.57914C7.30317 8.68854 7.15479 8.75 7.00008 8.75V8.75ZM7.46267 13.86C8.72267 13.3537 12.8334 11.3627 12.8334 7.02508V4.00866C12.8341 3.39559 12.6412 2.79794 12.2824 2.30085C11.9236 1.80376 11.417 1.43257 10.8349 1.24016L7.18383 0.0297464C7.06464 -0.0104851 6.93553 -0.0104851 6.81633 0.0297464L3.16525 1.24016C2.58315 1.43257 2.0766 1.80376 1.71777 2.30085C1.35893 2.79794 1.1661 3.39559 1.16675 4.00866V7.02508C1.16675 10.8529 5.253 13.1944 6.506 13.8209C6.65748 13.9122 6.82531 13.973 7.00008 14C7.16164 13.9825 7.31851 13.935 7.46267 13.86V13.86ZM10.4674 2.34733C10.8166 2.46307 11.1204 2.68588 11.3356 2.98412C11.5509 3.28235 11.6668 3.64084 11.6667 4.00866V7.02508C11.6667 10.6318 8.116 12.3398 7.0275 12.7773C5.92617 12.2267 2.33342 10.1844 2.33342 7.02508V4.00866C2.33337 3.64084 2.44922 3.28235 2.66452 2.98412C2.87981 2.68588 3.18361 2.46307 3.53275 2.34733L7.00008 1.19816L10.4674 2.34733ZM7.00008 9.91666C6.88471 9.91666 6.77193 9.95088 6.676 10.015C6.58007 10.0791 6.5053 10.1702 6.46115 10.2768C6.417 10.3834 6.40545 10.5006 6.42796 10.6138C6.45047 10.727 6.50602 10.8309 6.5876 10.9125C6.66918 10.9941 6.77312 11.0496 6.88628 11.0721C6.99944 11.0946 7.11672 11.0831 7.22332 11.0389C7.32991 10.9948 7.42101 10.92 7.48511 10.8241C7.5492 10.7282 7.58342 10.6154 7.58342 10.5C7.58342 10.3453 7.52196 10.1969 7.41256 10.0875C7.30317 9.97812 7.15479 9.91666 7.00008 9.91666Z" fill="#F21A05"/>
</g>
<defs>
<clipPath id="clip0_1_5986">
<rect width="14" height="14" fill="white"/>
</clipPath>
</defs>
</svg>
