<svg width="169" height="50" viewBox="0 0 169 50" fill="none" xmlns="http://www.w3.org/2000/svg">
<path d="M157.907 22.8094C161.07 22.8094 163.47 25.1656 163.47 28.3781C163.47 31.3766 161.07 33.9469 157.907 33.9469C154.743 33.9469 152.235 31.3766 152.235 28.3781C152.234 25.1656 154.743 22.8094 157.907 22.8094Z" fill="#F21A05"/>
<path d="M81.053 14.5391C79.0527 12.8109 76.2758 11.9453 72.7224 11.9453C70.146 11.9578 67.2147 12.6687 63.9334 14.0766L63.612 12.3859L59.8723 12.5969V34.0375H64.3201V17.7891C65.4675 17.2969 66.809 16.8859 68.3494 16.5563C69.8898 16.2234 71.1899 16.0594 72.2529 16.0594C75.216 16.0594 77.1829 16.5234 78.1504 17.4516C79.1164 18.3813 79.6001 19.8656 79.6001 21.9031L79.6447 34.0375H84.0511V21.9031C84.0511 18.725 83.0501 16.2688 81.053 14.5391Z" fill="#EAEAEA"/>
<path d="M102.033 30.3125L101.975 29.7547L101.545 29.8156L101.392 29.8375C101.005 29.8938 100.434 29.9547 99.6734 30.0188C98.9144 30.0813 98.1537 30.1125 97.3946 30.1125C95.3896 30.1125 93.978 29.8578 93.1617 29.3531C92.3437 28.8453 91.9363 27.8266 91.9363 26.2938V16.3125H99.683L99.6925 12.3031H91.9363V7.19688L89.2072 7.5125L87.7464 12.3031H84.4157L84.0513 16.3125H87.5315V26.2938C87.5315 31.5688 90.7269 34.2063 97.1162 34.2063C99.0512 34.2063 100.814 34.0656 102.403 33.7844L102.033 30.3125Z" fill="#EAEAEA"/>
<path d="M27.5412 15.1359C25.3563 13.1031 22.3869 12.0859 18.6329 12.0859C16.1679 12.1 13.3672 12.8109 10.2307 14.2172L9.90761 12.5297L6.16797 12.7406V45.4484L9.28222 45.4594L10.611 44.1281V37.7703H10.6173V32.5344C11.7329 33.0547 12.8595 33.4641 13.9942 33.7609C15.4964 34.1531 17.0129 34.3484 18.547 34.3484C19.0721 34.3484 19.5829 34.3281 20.0763 34.2875C23.1205 34.0422 25.595 33.0391 27.4983 31.2781C29.7118 29.2313 30.8194 26.5391 30.8194 23.1969C30.8194 19.8547 29.7261 17.1688 27.5412 15.1359ZM24.5861 28.3031C23.3958 29.6047 21.2475 30.2563 18.138 30.2563C15.9324 30.2563 13.4245 29.7063 10.6173 28.6094V17.975C13.1094 16.7922 15.6173 16.2016 18.138 16.2016C19.2328 16.2016 20.2083 16.2797 21.0629 16.4375C22.651 16.7281 23.8286 17.2891 24.5972 18.1219C25.778 19.4016 26.37 21.0938 26.37 23.1969C26.37 25.3 25.7748 27.0016 24.5861 28.3031Z" fill="#EAEAEA"/>
<path d="M114.46 34.3844C115.846 34.3406 117.105 34.1578 118.24 33.8359C116.92 34.1609 115.66 34.3406 114.46 34.3844Z" fill="#EAEAEA"/>
<path d="M125.13 12.3219V24.4578C125.13 27.6219 124.132 30.0719 122.132 31.8016C121.071 32.7203 119.791 33.3953 118.289 33.8234C118.273 33.8281 118.255 33.8344 118.24 33.8359C116.922 34.1609 115.66 34.3406 114.462 34.3844C114.247 34.3922 114.027 34.3938 113.805 34.3938C113.622 34.3938 113.435 34.3906 113.249 34.3844C112.048 34.3406 110.789 34.1609 109.471 33.8359C109.455 33.8359 109.441 33.8313 109.422 33.8234C107.92 33.3953 106.64 32.7203 105.579 31.8016C103.579 30.0703 102.581 27.6219 102.581 24.4578V12.3219H107.029V24.4578C107.029 26.4984 107.512 27.9797 108.478 28.9094C109.385 29.7797 111.169 30.2422 113.833 30.2969H113.878C116.54 30.2406 118.322 29.7797 119.233 28.9094C120.199 27.9828 120.682 26.4984 120.682 24.4578V12.3219H125.13Z" fill="#EAEAEA"/>
<path d="M53.7315 24.3984C52.7989 30.8281 43.5039 31.6422 38.9607 28.4172H38.9591C35.9483 25.875 35.9292 21.1781 38.6026 18.3125C40.6348 16.4141 43.6885 16.125 46.3779 16.2812L47.9676 12.2703C42.9279 11.5547 37.0909 12.7328 34.0164 17.0344C31.2968 20.7687 31.4909 26.9641 34.8582 30.4172C41.5339 37.4797 57.5634 34.9562 58.2954 24.3984H53.7315Z" fill="#EAEAEA"/>
<path d="M58.3479 22.9922H53.8094C53.7537 19.7141 51.2299 16.8609 47.8435 16.4594L49.3982 12.5391C54.3632 13.5688 58.4816 17.8687 58.3479 22.9922Z" fill="#F21A05"/>
<path d="M128.107 14.175C130.494 12.7359 134.388 11.7078 138.241 11.7078C143.726 11.7078 148.962 13.8453 148.919 19.8484L148.877 27.7438V27.9906C148.877 29.8406 149.213 30.6625 151.18 30.6625H151.473V34.4047C146.699 34.4047 144.145 33.3359 144.145 29.3469C142.135 32.5547 137.947 34.4859 133.341 34.6094C128.316 34.7734 125.887 31.8141 125.887 28.6469C125.887 24.9469 129.237 20.9172 135.603 21.0813L140.754 21.1641C141.927 21.2047 144.021 21.2469 144.146 19.8484C144.105 16.8469 141.215 15.8188 137.948 15.8188C134.807 15.8188 131.29 16.7641 129.489 17.8344L128.107 14.175ZM140.63 24.8234L135.73 24.7406C132.589 24.7 130.872 26.55 130.872 28.1938C130.872 29.5922 132.127 30.8672 134.891 30.7438C138.367 30.5375 143.978 28.1938 144.146 24.2063V23.9594C143.268 24.6188 142.095 24.8234 140.63 24.8234Z" fill="#EAEAEA"/>
</svg>
